Track 0: 
Track 1: 
note_on channel=0 note=63 velocity=90 time=0
note_off channel=0 note=63 velocity=0 time=0
note_off channel=0 note=66 velocity=0 time=0
note_off channel=0 note=66 velocity=0 time=0
note_off channel=0 note=67 velocity=0 time=0
note_off channel=0 note=66 velocity=0 time=0
note_off channel=0 note=65 velocity=0 time=0
note_off channel=0 note=67 velocity=0 time=0
note_off channel=0 note=66 velocity=0 time=0
note_off channel=0 note=65 velocity=0 time=0
note_off channel=0 note=63 velocity=0 time=0
note_off channel=0 note=66 velocity=0 time=0
note_off channel=0 note=66 velocity=0 time=0
note_off channel=0 note=66 velocity=0 time=0
note_off channel=0 note=66 velocity=0 time=0
note_off channel=0 note=63 velocity=0 time=0
note_off channel=0 note=66 velocity=0 time=0
note_off channel=0 note=66 velocity=0 time=0
note_off channel=0 note=66 velocity=0 time=0
note_off channel=0 note=68 velocity=0 time=0
note_off channel=0 note=65 velocity=0 time=0
note_off channel=0 note=66 velocity=0 time=0
note_off channel=0 note=66 velocity=0 time=0
note_off channel=0 note=68 velocity=0 time=0
note_off channel=0 note=66 velocity=0 time=0
note_off channel=0 note=66 velocity=0 time=0
note_off channel=0 note=68 velocity=0 time=0
note_off channel=0 note=65 velocity=0 time=0
note_off channel=0 note=66 velocity=0 time=0
note_off channel=0 note=66 velocity=0 time=0
note_off channel=0 note=65 velocity=0 time=0
note_off channel=0 note=68 velocity=0 time=0
note_off channel=0 note=65 velocity=0 time=0
note_off channel=0 note=66 velocity=0 time=0
note_off channel=0 note=66 velocity=0 time=0
note_off channel=0 note=68 velocity=0 time=0
note_off channel=0 note=67 velocity=0 time=0
note_off channel=0 note=65 velocity=0 time=0
note_off channel=0 note=66 velocity=0 time=0
note_off channel=0 note=65 velocity=0 time=0
note_off channel=0 note=66 velocity=0 time=0
note_off channel=0 note=66 velocity=0 time=0
note_off channel=0 note=66 velocity=0 time=0
note_off channel=0 note=66 velocity=0 time=0
note_off channel=0 note=65 velocity=0 time=0
note_off channel=0 note=63 velocity=0 time=0
note_off channel=0 note=63 velocity=0 time=0
note_off channel=0 note=65 velocity=0 time=0
note_off channel=0 note=66 velocity=0 time=0
note_off channel=0 note=65 velocity=0 time=0
note_off channel=0 note=66 velocity=0 time=0
note_off channel=0 note=66 velocity=0 time=0
note_off channel=0 note=65 velocity=0 time=0
note_off channel=0 note=66 velocity=0 time=0
note_off channel=0 note=65 velocity=0 time=0
note_off channel=0 note=66 velocity=0 time=0
note_off channel=0 note=65 velocity=0 time=0
note_off channel=0 note=66 velocity=0 time=0
note_off channel=0 note=65 velocity=0 time=0
note_off channel=0 note=66 velocity=0 time=0
note_off channel=0 note=65 velocity=0 time=0
note_off channel=0 note=66 velocity=0 time=0
note_off channel=0 note=65 velocity=0 time=0
note_off channel=0 note=66 velocity=0 time=0
note_off channel=0 note=66 velocity=0 time=0
note_off channel=0 note=65 velocity=0 time=0
note_off channel=0 note=66 velocity=0 time=0
note_off channel=0 note=63 velocity=0 time=0
note_off channel=0 note=65 velocity=0 time=0
note_off channel=0 note=66 velocity=0 time=0
note_off channel=0 note=68 velocity=0 time=0
note_off channel=0 note=66 velocity=0 time=0
note_off channel=0 note=66 velocity=0 time=0
note_off channel=0 note=66 velocity=0 time=0
note_off channel=0 note=66 velocity=0 time=0
note_off channel=0 note=66 velocity=0 time=0
note_off channel=0 note=63 velocity=0 time=0
note_off channel=0 note=65 velocity=0 time=0
note_off channel=0 note=66 velocity=0 time=0
note_off channel=0 note=65 velocity=0 time=0
note_off channel=0 note=66 velocity=0 time=0
note_off channel=0 note=65 velocity=0 time=0
note_off channel=0 note=66 velocity=0 time=0
note_off channel=0 note=65 velocity=0 time=0
note_off channel=0 note=66 velocity=0 time=0
note_off channel=0 note=65 velocity=0 time=0
note_off channel=0 note=65 velocity=0 time=0
note_off channel=0 note=66 velocity=0 time=0
note_off channel=0 note=65 velocity=0 time=0
note_off channel=0 note=66 velocity=0 time=0
note_off channel=0 note=65 velocity=0 time=0
note_off channel=0 note=68 velocity=0 time=0
note_off channel=0 note=66 velocity=0 time=0
note_off channel=0 note=66 velocity=0 time=0
note_off channel=0 note=62 velocity=0 time=0
note_off channel=0 note=66 velocity=0 time=0
note_off channel=0 note=65 velocity=0 time=0
note_off channel=0 note=67 velocity=0 time=0
note_off channel=0 note=65 velocity=0 time=0
note_off channel=0 note=63 velocity=0 time=0
note_off channel=0 note=66 velocity=0 time=0
note_off channel=0 note=65 velocity=0 time=0
note_off channel=0 note=63 velocity=0 time=0
note_off channel=0 note=66 velocity=0 time=0
note_off channel=0 note=66 velocity=0 time=0
note_off channel=0 note=66 velocity=0 time=0
note_off channel=0 note=66 velocity=0 time=0
note_off channel=0 note=65 velocity=0 time=0
note_off channel=0 note=65 velocity=0 time=0
note_off channel=0 note=66 velocity=0 time=0
note_off channel=0 note=66 velocity=0 time=0
note_off channel=0 note=65 velocity=0 time=0
note_off channel=0 note=66 velocity=0 time=0
note_off channel=0 note=65 velocity=0 time=0
note_off channel=0 note=66 velocity=0 time=0
note_off channel=0 note=65 velocity=0 time=0
note_off channel=0 note=66 velocity=0 time=0
note_off channel=0 note=65 velocity=0 time=0
note_off channel=0 note=68 velocity=0 time=0
note_off channel=0 note=65 velocity=0 time=0
note_off channel=0 note=66 velocity=0 time=0
note_off channel=0 note=65 velocity=0 time=0
note_off channel=0 note=66 velocity=0 time=0
note_off channel=0 note=65 velocity=0 time=0
note_off channel=0 note=65 velocity=0 time=0
note_off channel=0 note=66 velocity=0 time=0
note_off channel=0 note=65 velocity=0 time=0
note_off channel=0 note=66 velocity=0 time=0
note_off channel=0 note=66 velocity=0 time=0
note_off channel=0 note=65 velocity=0 time=0
Track 2: 
note_off channel=1 note=56 velocity=0 time=768
note_on channel=1 note=51 velocity=90 time=0
note_on channel=1 note=54 velocity=90 time=0
note_on channel=1 note=51 velocity=90 time=0
note_on channel=1 note=51 velocity=90 time=0
note_on channel=1 note=49 velocity=90 time=0
note_on channel=1 note=51 velocity=90 time=0
note_on channel=1 note=54 velocity=90 time=0
note_on channel=1 note=58 velocity=90 time=0
note_on channel=1 note=51 velocity=90 time=0
note_on channel=1 note=59 velocity=90 time=0
note_on channel=1 note=51 velocity=90 time=0
note_on channel=1 note=54 velocity=90 time=0
note_on channel=1 note=51 velocity=90 time=0
note_on channel=1 note=56 velocity=90 time=0
note_on channel=1 note=54 velocity=90 time=0
note_on channel=1 note=59 velocity=90 time=0
note_on channel=1 note=54 velocity=90 time=0
note_on channel=1 note=56 velocity=90 time=0
note_on channel=1 note=58 velocity=90 time=0
note_on channel=1 note=59 velocity=90 time=0
note_on channel=1 note=54 velocity=90 time=0
note_on channel=1 note=56 velocity=90 time=0
note_on channel=1 note=59 velocity=90 time=0
note_on channel=1 note=54 velocity=90 time=0
note_on channel=1 note=56 velocity=90 time=0
note_on channel=1 note=58 velocity=90 time=0
note_on channel=1 note=54 velocity=90 time=0
note_on channel=1 note=59 velocity=90 time=0
note_on channel=1 note=54 velocity=90 time=0
note_on channel=1 note=56 velocity=90 time=0
note_on channel=1 note=58 velocity=90 time=0
note_on channel=1 note=59 velocity=90 time=0
note_on channel=1 note=54 velocity=90 time=0
note_on channel=1 note=56 velocity=90 time=0
note_on channel=1 note=51 velocity=90 time=0
note_on channel=1 note=54 velocity=90 time=0
note_on channel=1 note=51 velocity=90 time=0
note_on channel=1 note=49 velocity=90 time=0
note_on channel=1 note=51 velocity=90 time=0
note_on channel=1 note=54 velocity=90 time=0
note_on channel=1 note=59 velocity=90 time=0
note_on channel=1 note=51 velocity=90 time=0
note_on channel=1 note=54 velocity=90 time=0
note_on channel=1 note=51 velocity=90 time=0
note_on channel=1 note=56 velocity=90 time=0
note_on channel=1 note=54 velocity=90 time=0
note_on channel=1 note=59 velocity=90 time=0
note_on channel=1 note=54 velocity=90 time=0
note_on channel=1 note=54 velocity=90 time=0
note_on channel=1 note=56 velocity=90 time=0
note_on channel=1 note=58 velocity=90 time=0
note_on channel=1 note=59 velocity=90 time=0
note_on channel=1 note=54 velocity=90 time=0
note_on channel=1 note=56 velocity=90 time=0
note_on channel=1 note=58 velocity=90 time=0
note_on channel=1 note=59 velocity=90 time=0
note_on channel=1 note=54 velocity=90 time=0
note_on channel=1 note=56 velocity=90 time=0
note_on channel=1 note=54 velocity=90 time=0
note_on channel=1 note=56 velocity=90 time=0
note_on channel=1 note=58 velocity=90 time=0
note_on channel=1 note=59 velocity=90 time=0
note_on channel=1 note=59 velocity=90 time=0
note_on channel=1 note=54 velocity=90 time=0
note_on channel=1 note=51 velocity=90 time=0
note_on channel=1 note=56 velocity=90 time=0
note_on channel=1 note=54 velocity=90 time=0
note_on channel=1 note=51 velocity=90 time=0
note_on channel=1 note=56 velocity=90 time=0
note_on channel=1 note=54 velocity=90 time=0
note_on channel=1 note=59 velocity=90 time=0
note_on channel=1 note=51 velocity=90 time=0
note_on channel=1 note=54 velocity=90 time=0
note_on channel=1 note=51 velocity=90 time=0
note_on channel=1 note=56 velocity=90 time=0
note_on channel=1 note=54 velocity=90 time=0
note_on channel=1 note=59 velocity=90 time=0
note_on channel=1 note=54 velocity=90 time=0
note_on channel=1 note=56 velocity=90 time=0
note_on channel=1 note=58 velocity=90 time=0
note_on channel=1 note=59 velocity=90 time=0
note_on channel=1 note=54 velocity=90 time=0
note_on channel=1 note=56 velocity=90 time=0
note_on channel=1 note=58 velocity=90 time=0
note_on channel=1 note=54 velocity=90 time=0
note_on channel=1 note=56 velocity=90 time=0
note_on channel=1 note=58 velocity=90 time=0
note_on channel=1 note=59 velocity=90 time=0
note_on channel=1 note=54 velocity=90 time=0
note_on channel=1 note=56 velocity=90 time=0
note_on channel=1 note=59 velocity=90 time=0
note_on channel=1 note=59 velocity=90 time=0
note_on channel=1 note=50 velocity=90 time=0
note_on channel=1 note=51 velocity=90 time=0
note_on channel=1 note=54 velocity=90 time=0
note_on channel=1 note=51 velocity=90 time=0
note_on channel=1 note=49 velocity=90 time=0
note_on channel=1 note=56 velocity=90 time=0
note_on channel=1 note=54 velocity=90 time=0
note_on channel=1 note=49 velocity=90 time=0
note_on channel=1 note=56 velocity=90 time=0
note_on channel=1 note=59 velocity=90 time=0
note_on channel=1 note=51 velocity=90 time=0
note_on channel=1 note=54 velocity=90 time=0
note_on channel=1 note=51 velocity=90 time=0
note_on channel=1 note=49 velocity=90 time=0
note_on channel=1 note=54 velocity=90 time=0
note_on channel=1 note=54 velocity=90 time=0
note_on channel=1 note=59 velocity=90 time=0
note_on channel=1 note=54 velocity=90 time=0
note_on channel=1 note=54 velocity=90 time=0
note_on channel=1 note=58 velocity=90 time=0
note_on channel=1 note=56 velocity=90 time=0
note_on channel=1 note=58 velocity=90 time=0
note_on channel=1 note=59 velocity=90 time=0
note_on channel=1 note=54 velocity=90 time=0
note_on channel=1 note=56 velocity=90 time=0
note_on channel=1 note=58 velocity=90 time=0
note_on channel=1 note=59 velocity=90 time=0
note_on channel=1 note=54 velocity=90 time=0
note_on channel=1 note=56 velocity=90 time=0
note_on channel=1 note=58 velocity=90 time=0
note_on channel=1 note=54 velocity=90 time=0
note_on channel=1 note=56 velocity=90 time=0
note_on channel=1 note=58 velocity=90 time=0
note_on channel=1 note=59 velocity=90 time=0
note_on channel=1 note=59 velocity=90 time=0
note_on channel=1 note=54 velocity=90 time=0
<meta message end_of_track time=0>
